<?xml version="1.0" encoding="utf-8"?>
<!-- Generator: Adobe Illustrator 19.1.0, SVG Export Plug-In . SVG Version: 6.00 Build 0)  -->
<svg version="1.1" id="Layer_1" xmlns="http://www.w3.org/2000/svg" xmlns:xlink="http://www.w3.org/1999/xlink" x="0px" y="0px"
	 viewBox="-83 85 24 24" style="enable-background:new -83 85 24 24;" xml:space="preserve">
<style type="text/css">
	.st0{fill:#2F77D1;}
</style>
<g>
	<g id="XMLID_1_">
		<g>
			<path class="st0" d="M-59.5,95v4c0,0.3-0.2,0.5-0.5,0.5h-8.5v8.5c0,0.3-0.2,0.5-0.5,0.5h-4c-0.3,0-0.5-0.2-0.5-0.5v-8.5H-82
				c-0.3,0-0.5-0.2-0.5-0.5v-4c0-0.3,0.2-0.5,0.5-0.5h8.5V86c0-0.3,0.2-0.5,0.5-0.5h4c0.3,0,0.5,0.2,0.5,0.5v8.5h8.5
				C-59.7,94.5-59.5,94.7-59.5,95z"/>
		</g>
		<g>
		</g>
	</g>
</g>
</svg>
