<?xml version="1.0" encoding="utf-8"?>
<!-- Generator: Adobe Illustrator 19.1.0, SVG Export Plug-In . SVG Version: 6.00 Build 0)  -->
<svg version="1.1" id="Layer_1" xmlns:sketch="http://www.bohemiancoding.com/sketch/ns"
	 xmlns="http://www.w3.org/2000/svg" xmlns:xlink="http://www.w3.org/1999/xlink" x="0px" y="0px" viewBox="-79 81 32 32"
	 style="enable-background:new -79 81 32 32;" xml:space="preserve">
<style type="text/css">
	.st0{fill:#157EFB;}
	.st1{fill:#FFFFFF;}
</style>
<title></title>
<desc></desc>
<g id="icon-46-note-checked">
	<g id="XMLID_1_">
		<g>
			<path class="st0" d="M-51,92v9h-5c-1.1,0-2,0.9-2,2v6h-14c-1.1,0-2-0.9-2-2V92H-51z M-64.7,103.6l7.8-7.8l-0.7-0.7l-7.1,7.1
				l-3.7-3.7l-0.7,0.7L-64.7,103.6z"/>
			<path class="st0" d="M-51,88v3h-23v-3c0-1.1,0.9-2,2-2h19C-51.9,86-51,86.9-51,88z"/>
			<path class="st0" d="M-51,102l-6,7v-6c0-0.6,0.5-1,1-1H-51z"/>
			<polygon class="st1" points="-56.9,95.8 -64.7,103.6 -69.1,99.1 -68.4,98.4 -64.7,102.2 -57.6,95.1 			"/>
		</g>
		<g>
		</g>
	</g>
</g>
</svg>
